<svg width="129" height="25" viewBox="0 0 129 25" fill="none" xmlns="http://www.w3.org/2000/svg">
<path fill-rule="evenodd" clip-rule="evenodd" d="M50.9583 19.4689C46.2273 22.9599 39.3683 24.8169 33.4623 24.8169C25.1843 24.8169 17.7303 21.7569 12.0893 16.6639C11.6473 16.2629 12.0413 15.7169 12.5743 16.0269C18.6593 19.5679 26.1863 21.7009 33.9593 21.7009C39.2023 21.7009 44.9673 20.6129 50.2703 18.3629C51.0703 18.0239 51.7413 18.8899 50.9583 19.4689Z" fill="#F69B34"/>
<path fill-rule="evenodd" clip-rule="evenodd" d="M52.9269 17.2209C52.3209 16.4459 48.9269 16.8539 47.4019 17.0369C46.9399 17.0929 46.8679 16.6889 47.2839 16.3959C49.9929 14.4939 54.4299 15.0429 54.9459 15.6809C55.4649 16.3219 54.8089 20.7719 52.2719 22.8949C51.8809 23.2209 51.5099 23.0469 51.6829 22.6159C52.2549 21.1899 53.5329 17.9969 52.9269 17.2209Z" fill="#F69B34"/>
<path d="M40.4345 10.9992C40.0335 11.7082 39.3965 12.1442 38.6895 12.1442C37.7235 12.1442 37.1575 11.4082 37.1575 10.3172C37.1575 8.17015 39.0825 7.78015 40.9055 7.78015V8.32615C40.9055 9.30815 40.9295 10.1262 40.4345 10.9992ZM45.3935 12.1322C44.9325 11.4962 44.4415 10.9782 44.4415 9.79715V5.87115C44.4415 4.20615 44.5605 2.67915 43.3345 1.53315C42.3895 0.627152 40.8395 0.294152 39.6255 0.279152H39.4385C37.0665 0.304152 34.4565 1.21415 33.9025 4.13715C33.8435 4.45115 34.0725 4.61715 34.2785 4.66415L36.7215 4.92915C36.9495 4.91715 37.1155 4.69115 37.1595 4.46415C37.3695 3.44415 38.2235 2.95115 39.1845 2.95115C39.7035 2.95115 40.2925 3.14215 40.5995 3.60615C40.9535 4.12515 40.9055 4.83315 40.9055 5.43415V5.76115C39.4435 5.92515 37.5345 6.03415 36.1675 6.63415C34.5885 7.31615 33.4795 8.70715 33.4795 10.7532C33.4795 13.3712 35.1295 14.6812 37.2515 14.6812C39.0435 14.6812 40.0235 14.2582 41.4065 12.8492C41.8645 13.5122 42.0145 13.8332 42.8515 14.5292C43.0395 14.6302 43.2795 14.6202 43.4455 14.4702L43.4535 14.4762C43.9555 14.0282 44.8705 13.2342 45.3855 12.8022C45.5905 12.6342 45.5545 12.3622 45.3935 12.1322Z" fill="#333E47"/>
<path d="M27.7303 0.403441C26.2483 0.403441 24.8603 1.16544 24.2493 2.79944C23.5433 1.16544 22.5553 0.403441 20.9793 0.403441C19.4263 0.403441 18.2733 1.16544 17.6623 2.79944H17.6143V1.11044C17.5993 0.874441 17.4023 0.688441 17.1563 0.676441H14.8093C14.5403 0.676441 14.3233 0.883441 14.3233 1.14144L14.3213 14.0764C14.3403 14.3074 14.5323 14.4874 14.7723 14.5024H17.2923C17.5603 14.5024 17.7783 14.2954 17.7783 14.0374L17.7793 7.18144C17.7793 5.68444 17.7083 3.61644 19.5203 3.61644C21.3083 3.61644 21.0723 5.73844 21.0723 7.18144L21.0753 14.0384C21.0753 14.2864 21.2743 14.4864 21.5283 14.5024H24.0453C24.3133 14.5024 24.5313 14.2954 24.5313 14.0374V7.18144C24.5313 6.44544 24.5073 5.35744 24.7663 4.70344C25.0253 4.05044 25.6603 3.64244 26.2723 3.64244C27.0013 3.64244 27.5653 3.88744 27.7533 4.75944C27.8713 5.27644 27.8243 6.63744 27.8243 7.18144L27.8253 14.0384C27.8253 14.2864 28.0243 14.4864 28.2783 14.5024H30.7943C31.0633 14.5024 31.2803 14.2954 31.2803 14.0374L31.2833 5.87444C31.2833 4.48644 31.4473 2.90844 30.6473 1.81944C29.9413 0.839441 28.7893 0.403441 27.7303 0.403441Z" fill="#333E47"/>
<path d="M7.39641 10.9992C6.99641 11.7082 6.35941 12.1442 5.65141 12.1442C4.68541 12.1442 4.11941 11.4082 4.11941 10.3172C4.11941 8.17015 6.04541 7.78015 7.86741 7.78015V8.32615C7.86741 9.30815 7.89141 10.1262 7.39641 10.9992ZM12.3554 12.1322C11.8954 11.4962 11.4044 10.9782 11.4044 9.79715V5.87115C11.4044 4.20615 11.5224 2.67915 10.2964 1.53315C9.35241 0.627152 7.80141 0.294152 6.58741 0.279152H6.40041C4.02841 0.304152 1.41841 1.21415 0.864406 4.13715C0.805406 4.45115 1.03441 4.61715 1.24141 4.66415L3.68341 4.92915C3.91241 4.91715 4.07841 4.69115 4.12141 4.46415C4.33041 3.44415 5.18541 2.95115 6.14741 2.95115C6.66541 2.95115 7.25541 3.14215 7.56141 3.60615C7.91541 4.12515 7.86741 4.83315 7.86741 5.43415V5.76115C6.40641 5.92515 4.49641 6.03415 3.12941 6.63415C1.54941 7.31615 0.441406 8.70715 0.441406 10.7532C0.441406 13.3712 2.09241 14.6812 4.21441 14.6812C6.00641 14.6812 6.98541 14.2582 8.36941 12.8492C8.82641 13.5122 8.97641 13.8332 9.81341 14.5292C10.0014 14.6302 10.2424 14.6202 10.4094 14.4702L10.4154 14.4762C10.9174 14.0282 11.8324 13.2342 12.3474 12.8022C12.5534 12.6342 12.5164 12.3622 12.3554 12.1322Z" fill="#333E47"/>
<path d="M63.8712 12.1074C61.8952 12.1074 61.9182 8.73239 61.9182 7.15339C61.9182 5.57439 62.0352 3.04339 63.8932 3.04339C64.6932 3.04339 65.2582 3.39739 65.5412 4.29539C65.8702 5.32939 65.9182 6.63639 65.9182 7.72539C65.9182 9.38539 65.8232 12.1074 63.8712 12.1074ZM63.8712 0.40339C60.2242 0.40339 58.2012 3.53339 58.2012 7.56239C58.2012 11.5624 60.2002 14.7754 63.8712 14.7754C67.3992 14.7754 69.6342 11.6444 69.6342 7.69839C69.6342 3.61639 67.6112 0.40339 63.8712 0.40339Z" fill="#333E47"/>
<path d="M128.085 0.665646H126.357C126.01 0.665646 125.861 0.888645 125.787 1.10564L122.159 11.6546L118.358 1.10564C118.279 0.887644 118.137 0.665646 117.788 0.665646H115.955C115.515 0.665646 115.541 1.07464 115.629 1.29564L120.872 14.2826C120.7 14.7826 120.426 15.5446 120.014 16.4886C119.721 17.1596 119.225 17.6486 118.535 17.7926C118.006 17.9016 117.261 17.8266 116.735 17.7516C116.453 17.7356 116.32 17.9216 116.32 18.1926V19.1426C116.32 19.3096 116.392 19.5636 116.582 19.6586C117.332 19.9726 118.609 20.0686 119.621 19.8036C121.64 19.3106 122.537 16.4716 123.21 14.6886L128.411 1.29564C128.498 1.07364 128.522 0.665646 128.085 0.665646Z" fill="#333E47"/>
<path d="M111.39 11.1259C110.954 11.5439 110.077 12.0139 109.142 12.2789C108.169 12.5559 107.134 12.6109 106.467 12.1569C105.892 11.8049 105.647 11.0919 105.647 10.3809C105.647 9.83091 105.816 9.26291 106.191 8.86691C106.693 8.32691 107.654 8.11891 108.532 8.11891C109.087 8.11891 110.523 8.21791 111.39 8.45491V11.1259ZM108.885 0.25691C107.136 0.31491 105.491 0.630911 104.33 1.13691C104.106 1.20791 103.9 1.44191 103.9 1.68491V2.69391C103.9 2.93591 104.052 3.13391 104.312 3.12491C105.938 2.61891 107.107 2.38891 108.634 2.38891C110.632 2.38891 111.39 3.16791 111.39 4.96791V6.73791C110.358 6.40091 108.939 6.28391 107.948 6.28391C106.307 6.28391 104.947 6.78091 104.01 7.79291C103.307 8.53291 102.99 9.55291 102.99 10.5809C102.99 11.9109 103.56 13.1999 104.634 13.8589C106.119 14.7709 107.872 14.6729 109.392 14.0829C110.182 13.7749 110.911 13.3339 111.505 12.8309L111.635 13.7109C111.671 13.9489 111.861 14.1499 112.141 14.1499H113.433C113.676 14.1499 113.874 13.9519 113.874 13.7109V4.27691C113.874 0.77091 111.164 0.25691 108.885 0.25691Z" fill="#333E47"/>
<path d="M78.2696 0.403441C76.5286 0.403441 75.5416 1.24644 74.8356 3.01644H74.7886V1.03844C74.7416 0.837441 74.5606 0.687441 74.3396 0.676441H72.0026C71.7486 0.676441 71.5396 0.861442 71.5186 1.09944L71.5226 14.0384C71.5226 14.2864 71.7226 14.4864 71.9746 14.5024H74.4856C74.7546 14.5024 74.9716 14.2954 74.9766 14.0374V7.07344C74.9766 6.20144 75.0236 5.41244 75.3766 4.62244C75.6586 3.99644 76.2236 3.58844 76.8346 3.58844C78.5766 3.58844 78.4106 5.65744 78.4106 7.07344V14.0954C78.4386 14.3164 78.6266 14.4884 78.8596 14.5024H81.3856C81.6356 14.5024 81.8416 14.3244 81.8686 14.0954V5.95644C81.8686 4.70344 81.8686 2.96244 81.2106 1.92844C80.5046 0.811441 79.3986 0.403441 78.2696 0.403441Z" fill="#333E47"/>
<path d="M56.5501 10.9974C55.1021 10.1844 53.4181 9.9454 51.8251 9.9824L56.1161 3.8554C56.5131 3.3054 56.7371 2.9584 56.7401 2.6924V1.1074C56.7401 0.833402 56.5271 0.641402 56.2621 0.641402L47.9781 0.642403C47.7231 0.641402 47.5111 0.828403 47.5101 1.1104V2.9574C47.5111 3.2354 47.7241 3.4234 47.9881 3.4234L52.3171 3.4244L47.3461 10.5564C47.0431 11.0134 47.0371 11.5264 47.0371 11.8264V13.7014C47.0371 13.9734 47.3391 14.2834 47.6261 14.1294C50.4461 12.6324 53.8301 12.7784 56.3791 14.1134C56.6921 14.2774 56.9901 13.9634 56.9901 13.6914V11.7194C56.9641 11.4524 56.8761 11.1804 56.5501 10.9974Z" fill="#333E47"/>
<path d="M97.2618 11.447C96.5868 12.112 95.8338 12.293 94.6998 12.293C93.6898 12.293 92.3618 11.767 91.3698 11.034V3.65096C92.4028 2.85796 93.7198 2.42896 94.8188 2.42896C97.6858 2.42896 98.4668 4.68396 98.4668 7.26596C98.4828 9.00596 98.1628 10.559 97.2618 11.447ZM95.5288 0.265957C94.0068 0.265957 92.4088 0.971956 91.1678 2.07396L91.0288 1.12896C90.9938 0.890955 90.8028 0.688957 90.5238 0.688957H89.1988C88.9568 0.688957 88.7588 0.886955 88.7588 1.12896V19.167C88.7588 19.408 88.9568 19.606 89.1988 19.606H90.9298C91.1718 19.606 91.3698 19.408 91.3698 19.167V12.938C92.4678 13.917 93.8958 14.481 95.4228 14.481C99.0498 14.481 101.195 11.34 101.195 7.43196C101.195 3.77896 99.7928 0.265957 95.5288 0.265957Z" fill="#333E47"/>
</svg>
