<svg width="71" height="30" viewBox="0 0 71 30" fill="none" xmlns="http://www.w3.org/2000/svg">
<path d="M58.555 29.6299C61.772 29.6299 63.285 28.4029 64.608 24.6809L70.401 8.43188H67.048L63.163 20.9869H63.095L59.209 8.43188H55.76L61.35 23.9039L61.05 24.8449C60.545 26.4399 59.727 27.0539 58.269 27.0539C58.01 27.0539 57.505 27.0259 57.301 26.9989V29.5479C57.492 29.6029 58.31 29.6299 58.555 29.6299ZM47.376 21.4919C45.618 21.4919 44.5 20.6459 44.5 19.3509C44.5 18.0149 45.577 17.2379 47.635 17.1159L51.303 16.8839V18.0829C51.303 20.0739 49.612 21.4919 47.376 21.4919ZM46.49 24.0139C48.562 24.0139 50.485 22.9639 51.357 21.3009H51.425V23.8499H54.479V13.2709C54.479 10.2039 52.025 8.22688 48.249 8.22688C44.745 8.22688 42.155 10.2309 42.06 12.9849H45.032C45.277 11.6759 46.49 10.8169 48.154 10.8169C50.171 10.8169 51.303 11.7579 51.303 13.4889V14.6619L47.186 14.9069C43.355 15.1389 41.283 16.7069 41.283 19.4329C41.283 22.1869 43.423 24.0139 46.49 24.0139ZM28.796 5.37788H32.599C35.462 5.37788 37.098 6.90488 37.098 9.59088C37.098 12.2759 35.462 13.8169 32.585 13.8169H28.796V5.37788ZM25.497 2.59688V23.8499H28.796V16.5839H33.362C37.534 16.5839 40.465 13.7209 40.465 9.57688C40.465 5.43288 37.588 2.59688 33.472 2.59688H25.497ZM14.55 6.55088C12.655 6.44088 11.033 7.62688 10.133 7.62688C9.21998 7.62688 7.84298 6.60488 6.34298 6.63188C4.39398 6.65988 2.58098 7.76388 1.58598 9.52188C-0.45902 13.0399 1.05398 18.2469 3.03098 21.1099C3.99798 22.5279 5.15698 24.0819 6.68398 24.0269C8.12898 23.9729 8.70198 23.0869 10.447 23.0869C12.205 23.0869 12.71 24.0269 14.236 23.9999C15.818 23.9729 16.813 22.5819 17.781 21.1639C18.885 19.5559 19.335 17.9879 19.362 17.9059C19.335 17.8789 16.308 16.7199 16.281 13.2299C16.254 10.3129 18.667 8.92288 18.776 8.84088C17.413 6.82288 15.286 6.60488 14.55 6.55088ZM13.364 4.66888C12.546 5.63688 11.237 6.40088 9.92898 6.29188C9.76498 4.98288 10.406 3.59188 11.155 2.73288C11.973 1.73788 13.405 1.02888 14.564 0.974882C14.7 2.33788 14.168 3.67388 13.364 4.66888Z" fill="black"/>
</svg>
