<svg xmlns="http://www.w3.org/2000/svg" width="71" height="67" viewBox="0 0 71 67" fill="none">
<path d="M60.3999 66.5146H-26.6001C-32.1231 66.5146 -36.6001 62.0376 -36.6001 56.5146V10.5146C-36.6001 4.99165 -32.1231 0.514648 -26.6001 0.514648H60.3999C65.9229 0.514648 70.3999 4.99165 70.3999 10.5146V56.5146C70.3999 62.0376 65.9229 66.5146 60.3999 66.5146Z" fill="#E12A87" style="&#10;    fill: #E32488;&#10;"/>
<path d="M39.0238 26.4866C33.1408 26.4866 27.2578 26.4866 21.3748 26.4866C20.3808 26.4866 20.3778 26.4876 20.3778 27.4806C20.3768 34.7206 20.3768 41.9616 20.3778 49.2016C20.3778 49.4316 20.3808 49.6616 20.3968 49.8906C20.5008 51.3946 21.7438 52.5796 23.2598 52.5796C33.7618 52.5856 44.2638 52.5846 54.7658 52.5766C55.0798 52.5766 55.4148 52.5356 55.7048 52.4226C57.0108 51.9126 57.6528 50.9156 57.6538 49.4186C57.6578 42.1326 57.6558 34.8456 57.6558 27.5586C57.6558 26.4866 57.6558 26.4856 56.6038 26.4856C50.7438 26.4856 44.8838 26.4856 39.0238 26.4866ZM39.0468 54.5116C33.8308 54.5116 28.6148 54.5196 23.3978 54.5076C21.1168 54.5026 19.4978 53.4006 18.7078 51.2686C18.4988 50.7046 18.4518 50.0526 18.4508 49.4406C18.4358 39.3276 18.4648 29.2136 18.4258 19.1006C18.4138 16.0636 20.7668 13.8806 23.5468 14.0306C24.5098 14.0836 25.4778 14.0626 26.4418 14.0296C26.9998 14.0106 27.2238 14.1836 27.2048 14.7736C27.1668 15.9676 27.1838 17.1637 27.1958 18.3587C27.2198 20.6437 28.9698 22.1216 31.2058 21.7586C32.5788 21.5356 33.7718 20.1497 33.8028 18.6856C33.8298 17.3756 33.8288 16.0647 33.8038 14.7556C33.7928 14.2267 33.9578 14.0257 34.5108 14.0286C37.5208 14.0496 40.5318 14.0506 43.5418 14.0286C44.0958 14.0246 44.2538 14.2226 44.2428 14.7526C44.2158 16.0386 44.2218 17.3266 44.2428 18.6136C44.2668 20.0576 45.3248 21.4236 46.6208 21.7296C48.1948 22.1017 49.7228 21.4746 50.4048 20.0716C50.6558 19.5546 50.7658 18.9337 50.7948 18.3526C50.8528 17.1596 50.8278 15.9626 50.8068 14.7676C50.7978 14.2456 50.9698 14.0156 51.5218 14.0296C52.6468 14.0596 53.7738 14.0456 54.8998 14.0426C57.3668 14.0356 59.5238 16.1786 59.5688 18.5556C59.5728 18.7846 59.5848 19.0146 59.5848 19.2446C59.5858 29.2656 59.5748 39.2876 59.5948 49.3096C59.5988 51.3436 58.8588 52.9036 57.0738 53.9396C56.2668 54.4086 55.3958 54.5146 54.4898 54.5146C49.3418 54.5106 44.1948 54.5126 39.0468 54.5116Z" fill="white"/>
<path d="M28.5919 15.638C28.5919 14.651 28.5729 13.663 28.5969 12.677C28.6259 11.517 29.3929 10.749 30.4819 10.744C31.5799 10.74 32.3969 11.483 32.4179 12.633C32.4559 14.629 32.4539 16.627 32.4129 18.623C32.3889 19.774 31.5599 20.546 30.4899 20.541C29.3999 20.536 28.6129 19.715 28.5929 18.53C28.5759 17.566 28.5899 16.602 28.5899 15.638H28.5919Z" fill="white"/>
<path d="M49.4455 15.6234C49.4455 16.6114 49.4545 17.5994 49.4435 18.5864C49.4315 19.6364 48.6985 20.4414 47.6925 20.5354C46.6935 20.6284 45.8195 19.9564 45.6385 18.9074C45.5645 18.4814 45.5665 18.0394 45.5655 17.6044C45.5605 15.9964 45.5465 14.3884 45.5825 12.7814C45.6055 11.7154 46.2395 10.9374 47.1235 10.7634C48.0085 10.5894 48.8915 11.0214 49.2775 11.8654C49.3965 12.1244 49.4325 12.4394 49.4385 12.7294C49.4575 13.6934 49.4455 14.6594 49.4455 15.6234Z" fill="white"/>
<path d="M29.1912 47.4018C28.4112 47.4018 27.6302 47.3898 26.8502 47.4068C26.4142 47.4158 26.2392 47.2528 26.2452 46.8008C26.2632 45.2408 26.2612 43.6788 26.2442 42.1188C26.2402 41.7088 26.3852 41.5228 26.7952 41.5238C28.3782 41.5268 29.9622 41.5278 31.5452 41.5188C31.9632 41.5158 32.1112 41.7118 32.1092 42.1088C32.1022 43.6928 32.0982 45.2768 32.1142 46.8598C32.1192 47.2928 31.9302 47.4158 31.5322 47.4068C30.7522 47.3888 29.9712 47.4018 29.1912 47.4018Z" fill="white"/>
<path d="M38.9841 47.4017C38.2261 47.4017 37.4681 47.3887 36.7101 47.4067C36.2591 47.4177 36.0371 47.2777 36.0441 46.7797C36.0641 45.2407 36.0621 43.7017 36.0431 42.1627C36.0371 41.6747 36.2511 41.5157 36.7041 41.5187C38.2201 41.5277 39.7361 41.5307 41.2521 41.5167C41.7391 41.5117 41.9601 41.6777 41.9521 42.1977C41.9301 43.7137 41.9281 45.2297 41.9521 46.7457C41.9601 47.2687 41.7521 47.4277 41.2571 47.4087C40.5011 47.3807 39.7421 47.4017 38.9841 47.4017Z" fill="white"/>
<path d="M36.0504 34.5778C36.0504 33.8428 36.0644 33.1078 36.0464 32.3738C36.0344 31.9088 36.2284 31.6968 36.6934 31.6988C38.2314 31.7038 39.7694 31.7048 41.3064 31.6978C41.7854 31.6948 41.9494 31.9318 41.9464 32.3828C41.9364 33.8748 41.9314 35.3678 41.9484 36.8598C41.9544 37.4068 41.7114 37.5728 41.1934 37.5648C39.7474 37.5428 38.3004 37.5368 36.8554 37.5668C36.2684 37.5788 36.0114 37.3938 36.0414 36.7818C36.0774 36.0488 36.0504 35.3118 36.0504 34.5778Z" fill="white"/>
<path d="M26.251 34.6424C26.251 33.8854 26.269 33.1274 26.245 32.3714C26.23 31.9054 26.401 31.6944 26.876 31.6974C28.413 31.7054 29.95 31.7044 31.487 31.6944C31.923 31.6914 32.111 31.8774 32.109 32.3124C32.101 33.8494 32.1 35.3874 32.108 36.9244C32.11 37.3934 31.904 37.5684 31.437 37.5634C29.923 37.5454 28.408 37.5474 26.894 37.5624C26.424 37.5674 26.231 37.3894 26.245 36.9134C26.266 36.1574 26.251 35.3994 26.251 34.6424Z" fill="white"/>
<path d="M45.9162 44.4543C45.9152 43.6733 45.9232 42.8923 45.9132 42.1103C45.9072 41.7083 46.0792 41.5193 46.4862 41.5213C48.0722 41.5273 49.6572 41.5243 51.2422 41.5263C51.6062 41.5263 51.7802 41.6883 51.7782 42.0733C51.7672 43.6593 51.7652 45.2443 51.7742 46.8303C51.7772 47.2423 51.6072 47.4073 51.2002 47.4053C49.6152 47.3963 48.0302 47.3963 46.4452 47.4053C46.0632 47.4073 45.9082 47.2443 45.9132 46.8673C45.9242 46.0633 45.9172 45.2583 45.9162 44.4543Z" fill="white"/>
<path d="M51.7731 34.6304C51.7731 35.3864 51.7631 36.1434 51.7771 36.9004C51.7861 37.3594 51.6071 37.5664 51.1301 37.5614C49.5951 37.5474 48.0591 37.5484 46.5241 37.5624C46.0721 37.5674 45.9111 37.3584 45.9131 36.9384C45.9181 35.4024 45.9201 33.8664 45.9121 32.3304C45.9091 31.9014 46.0841 31.6964 46.5221 31.6984C48.0571 31.7034 49.5931 31.7054 51.1281 31.6964C51.5941 31.6934 51.7901 31.8924 51.7781 32.3614C51.7591 33.1174 51.7731 33.8744 51.7731 34.6304Z" fill="white"/>
</svg>