<svg width="67" height="61" viewBox="0 0 67 61" fill="none" xmlns="http://www.w3.org/2000/svg">
<path d="M0.126099 9.15709V50.8451C0.126099 56.3681 4.6031 60.8451 10.1261 60.8451H56.1261C61.6491 60.8451 66.1261 56.3681 66.1261 50.8451V9.15709C66.1261 4.38009 61.6491 0.507095 56.1261 0.507095H10.1261C4.6041 0.507095 0.126099 4.38009 0.126099 9.15709Z" fill="#C42E90"/>
<path d="M33.1395 24.5425C27.2565 24.5425 21.3735 24.5425 15.4905 24.5425C14.4965 24.5425 14.4935 24.5435 14.4935 25.5365C14.4925 32.7765 14.4925 40.0175 14.4935 47.2575C14.4935 47.4875 14.4965 47.7175 14.5125 47.9465C14.6165 49.4505 15.8595 50.6355 17.3755 50.6365C27.8775 50.6415 38.3795 50.6405 48.8815 50.6325C49.1955 50.6325 49.5305 50.5915 49.8205 50.4785C51.1265 49.9685 51.7685 48.9715 51.7695 47.4745C51.7735 40.1885 51.7715 32.9015 51.7715 25.6155C51.7715 24.5415 51.7715 24.5415 50.7195 24.5415C44.8595 24.5415 38.9995 24.5415 33.1395 24.5425ZM33.1625 52.5675C27.9465 52.5675 22.7305 52.5755 17.5135 52.5635C15.2325 52.5585 13.6135 51.4565 12.8235 49.3255C12.6145 48.7605 12.5675 48.1085 12.5665 47.4965C12.5515 37.3835 12.5805 27.2695 12.5415 17.1565C12.5295 14.1195 14.8825 11.9365 17.6625 12.0875C18.6255 12.1395 19.5935 12.1185 20.5575 12.0855C21.1155 12.0675 21.3395 12.2395 21.3205 12.8295C21.2825 14.0235 21.2995 15.2195 21.3115 16.4145C21.3355 18.6995 23.0855 20.1775 25.3215 19.8145C26.6945 19.5915 27.8875 18.2055 27.9185 16.7415C27.9455 15.4315 27.9445 14.1205 27.9195 12.8105C27.9085 12.2825 28.0735 12.0815 28.6265 12.0845C31.6365 12.1055 34.6475 12.1065 37.6575 12.0845C38.2115 12.0805 38.3695 12.2795 38.3585 12.8085C38.3315 14.0945 38.3375 15.3825 38.3585 16.6695C38.3825 18.1135 39.4405 19.4795 40.7365 19.7855C42.3105 20.1575 43.8385 19.5305 44.5205 18.1275C44.7715 17.6115 44.8815 16.9895 44.9105 16.4085C44.9685 15.2155 44.9436 14.0185 44.9226 12.8235C44.9136 12.3015 45.0856 12.0715 45.6376 12.0865C46.7626 12.1155 47.8895 12.1015 49.0155 12.0985C51.4825 12.0925 53.6395 14.2345 53.6845 16.6115C53.6885 16.8415 53.7006 17.0705 53.7006 17.3005C53.7016 27.3225 53.6905 37.3435 53.7105 47.3655C53.7145 49.4005 52.9745 50.9595 51.1895 51.9955C50.3825 52.4655 49.5115 52.5705 48.6055 52.5705C43.4575 52.5665 38.3105 52.5685 33.1625 52.5675Z" fill="white"/>
<path d="M22.7077 13.6944C22.7077 12.7074 22.6887 11.7194 22.7127 10.7334C22.7417 9.57339 23.5087 8.80539 24.5977 8.80039C25.6947 8.79639 26.5127 9.54039 26.5337 10.6894C26.5717 12.6854 26.5697 14.6834 26.5287 16.6794C26.5047 17.8304 25.6757 18.6024 24.6057 18.5974C23.5157 18.5924 22.7287 17.7714 22.7087 16.5864C22.6917 15.6224 22.7057 14.6584 22.7057 13.6944H22.7077Z" fill="white"/>
<path d="M43.5607 13.6799C43.5607 14.6679 43.5697 15.6549 43.5577 16.6429C43.5467 17.6929 42.8137 18.4979 41.8077 18.5919C40.8087 18.6849 39.9347 18.0129 39.7537 16.9639C39.6797 16.5379 39.6817 16.0959 39.6807 15.6609C39.6757 14.0529 39.6617 12.4449 39.6977 10.8379C39.7207 9.77189 40.3547 8.99389 41.2387 8.81989C42.1237 8.64589 43.0067 9.0779 43.3927 9.9219C43.5117 10.1809 43.5477 10.4959 43.5537 10.7859C43.5727 11.7499 43.5607 12.7149 43.5607 13.6799Z" fill="white"/>
<path d="M23.3069 45.4582C22.5269 45.4582 21.7459 45.4462 20.9659 45.4632C20.5299 45.4722 20.3549 45.3092 20.3609 44.8572C20.3789 43.2972 20.3769 41.7352 20.3599 40.1752C20.3559 39.7652 20.5009 39.5792 20.9109 39.5802C22.4939 39.5822 24.0779 39.5842 25.6609 39.5752C26.0789 39.5722 26.2269 39.7682 26.2249 40.1652C26.2179 41.7482 26.2139 43.3332 26.2299 44.9162C26.2349 45.3492 26.0459 45.4722 25.6479 45.4632C24.8679 45.4452 24.0869 45.4582 23.3069 45.4582Z" fill="white"/>
<path d="M33.0999 45.4582C32.3419 45.4582 31.5839 45.4452 30.8259 45.4632C30.3749 45.4742 30.1529 45.3342 30.1599 44.8362C30.1799 43.2982 30.1779 41.7582 30.1589 40.2192C30.1529 39.7312 30.3669 39.5722 30.8199 39.5752C32.3359 39.5842 33.8519 39.5872 35.3679 39.5732C35.8549 39.5682 36.0759 39.7342 36.0679 40.2542C36.0459 41.7692 36.0439 43.2862 36.0679 44.8022C36.0759 45.3252 35.8679 45.4842 35.3729 45.4652C34.6169 45.4372 33.8579 45.4582 33.0999 45.4582Z" fill="white"/>
<path d="M30.1661 32.6338C30.1661 31.8988 30.1801 31.1638 30.1621 30.4298C30.1501 29.9648 30.3441 29.7528 30.8091 29.7538C32.3471 29.7598 33.8851 29.7608 35.4221 29.7538C35.9011 29.7508 36.0651 29.9878 36.0621 30.4388C36.0521 31.9308 36.0471 33.4238 36.0641 34.9158C36.0701 35.4628 35.8271 35.6288 35.3081 35.6208C33.8631 35.5988 32.4161 35.5938 30.9711 35.6228C30.3841 35.6348 30.1271 35.4498 30.1571 34.8378C30.1931 34.1048 30.1661 33.3688 30.1661 32.6338Z" fill="white"/>
<path d="M20.3668 32.6984C20.3668 31.9414 20.3848 31.1834 20.3608 30.4264C20.3458 29.9614 20.5168 29.7504 20.9918 29.7524C22.5288 29.7614 24.0658 29.7604 25.6028 29.7504C26.0388 29.7474 26.2268 29.9334 26.2248 30.3684C26.2168 31.9054 26.2158 33.4434 26.2238 34.9804C26.2258 35.4494 26.0198 35.6244 25.5528 35.6194C24.0388 35.6014 22.5238 35.6034 21.0098 35.6184C20.5398 35.6234 20.3468 35.4444 20.3608 34.9704C20.3818 34.2134 20.3668 33.4554 20.3668 32.6984Z" fill="white"/>
<path d="M40.032 42.5105C40.031 41.7295 40.039 40.9475 40.029 40.1665C40.023 39.7645 40.195 39.5755 40.602 39.5775C42.188 39.5835 43.773 39.5805 45.358 39.5815C45.722 39.5825 45.896 39.7445 45.894 40.1295C45.883 41.7145 45.881 43.3005 45.89 44.8865C45.893 45.2975 45.723 45.4635 45.316 45.4615C43.731 45.4525 42.146 45.4525 40.561 45.4605C40.179 45.4625 40.024 45.3005 40.029 44.9235C40.04 44.1195 40.033 43.3145 40.032 42.5105Z" fill="white"/>
<path d="M45.8889 32.6867C45.8889 33.4427 45.8789 34.1997 45.8929 34.9557C45.9019 35.4157 45.7229 35.6217 45.2459 35.6177C43.7109 35.6037 42.1749 35.6047 40.6399 35.6187C40.1879 35.6227 40.0269 35.4147 40.0289 34.9947C40.0339 33.4587 40.0359 31.9227 40.0279 30.3867C40.0249 29.9577 40.1999 29.7527 40.6379 29.7547C42.1729 29.7597 43.7089 29.7617 45.2439 29.7527C45.7099 29.7497 45.9059 29.9487 45.8939 30.4177C45.8749 31.1737 45.8889 31.9307 45.8889 32.6867Z" fill="white"/>
</svg>
