<svg width="39" height="39" viewBox="0 0 39 39" fill="none" xmlns="http://www.w3.org/2000/svg">
<path d="M38.675 11.0752V27.9852C38.675 33.7652 33.989 38.4512 28.208 38.4512H11.299C5.51803 38.4512 0.832031 33.7652 0.832031 27.9852V11.0752C0.832031 5.29417 5.51803 0.608173 11.299 0.608173H28.208C33.989 0.608173 38.675 5.29417 38.675 11.0752Z" fill="#1B79F3"/>
<path d="M23.2562 14.9327V19.6677H28.8062L27.8152 25.0187H23.2562V38.4517H16.9142V25.0187H12.1582V19.6677H16.9142V13.5117C16.9142 10.1257 19.6592 7.37966 23.0462 7.37966H29.4012V12.7307H25.4592C24.2422 12.7307 23.2562 13.7157 23.2562 14.9327Z" fill="#FEFAF9"/>
</svg>
