<svg width="74" height="30" viewBox="0 0 74 30" fill="none" xmlns="http://www.w3.org/2000/svg">
<path d="M35.0103 5.08615V12.3971H39.5223C40.5223 12.4271 41.4893 12.0342 42.1843 11.3141C43.5983 9.94015 43.6303 7.68015 42.2553 6.26715C42.2323 6.24315 42.2083 6.21915 42.1843 6.19615C41.4973 5.46115 40.5283 5.05615 39.5223 5.08415H35.0103V5.08615ZM35.0103 14.9711V23.4521H32.3193V2.50715H39.4553C41.1763 2.47115 42.8393 3.12415 44.0763 4.32115C45.3283 5.44615 46.0313 7.05815 46.0063 8.74115C46.0423 10.4331 45.3373 12.0571 44.0763 13.1861C42.8283 14.3762 41.2883 14.9701 39.4553 14.9691H35.0103V14.9711Z" fill="#5E6368"/>
<path d="M48.726 19.0654C48.722 19.7604 49.055 20.4134 49.618 20.8204C50.213 21.2884 50.952 21.5364 51.709 21.5224C52.844 21.5204 53.933 21.0684 54.736 20.2654C55.627 19.4264 56.072 18.4424 56.072 17.3124C55.234 16.6434 54.064 16.3094 52.563 16.3094C51.47 16.3094 50.559 16.5734 49.829 17.1004C49.092 17.6344 48.726 18.2854 48.726 19.0654ZM52.207 8.65441C54.196 8.65441 55.766 9.18541 56.916 10.2484C58.067 11.3114 58.642 12.7684 58.641 14.6204V23.4524H56.067V21.4634H55.95C54.836 23.1014 53.355 23.9204 51.505 23.9204C49.926 23.9204 48.606 23.4524 47.543 22.5164C46.51 21.6464 45.924 20.3574 45.948 19.0074C45.948 17.5244 46.509 16.3444 47.63 15.4694C48.75 14.5934 50.247 14.1544 52.118 14.1524C53.716 14.1524 55.032 14.4444 56.066 15.0294V14.4144C56.072 13.4944 55.664 12.6194 54.954 12.0334C54.243 11.3914 53.316 11.0414 52.357 11.0524C50.855 11.0524 49.665 11.6864 48.789 12.9544L46.42 11.4614C47.723 9.58941 49.652 8.65441 52.207 8.65441Z" fill="#5E6368"/>
<path d="M73.4141 9.12204L64.4301 29.769H61.6521L64.9861 22.545L59.0791 9.12204H62.0031L66.2731 19.416H66.3311L70.4841 9.12204H73.4141Z" fill="#5E6368"/>
<path d="M20.556 21.9951H20.558C22.829 19.9011 24.137 16.8041 24.137 13.1431C24.139 12.3221 24.069 11.5051 23.93 10.6961H12.583V15.3301H19.082C18.813 16.8261 17.946 18.1461 16.679 18.9871V18.9891L20.556 21.9951Z" fill="#4484F3"/>
<path d="M5.82803 15.1714C6.78103 18.0224 9.44403 20.1384 12.583 20.1384C14.209 20.1384 15.599 19.7204 16.679 18.9884L20.556 21.9944L20.558 21.9964C18.564 23.8344 15.83 24.9014 12.583 24.9014C8.03403 24.9014 3.87403 22.3354 1.83203 18.2714L5.82803 15.1714Z" fill="#34A753"/>
<path d="M5.82876 10.566C5.32576 12.06 5.32576 13.678 5.82876 15.172L1.83276 18.272C0.124758 14.873 0.124758 10.865 1.83276 7.46597L5.82876 10.566Z" fill="#FABA06"/>
<path d="M12.583 5.59892C14.299 5.57092 15.957 6.21892 17.199 7.40392L20.633 3.96992C18.455 1.92392 15.57 0.800919 12.583 0.835918C8.03403 0.835918 3.87503 3.40092 1.83203 7.46592L5.82803 10.5659C6.78103 7.71492 9.44403 5.59892 12.583 5.59892Z" fill="#E94335"/>
</svg>
