<svg width="39" height="39" viewBox="0 0 39 39" fill="none" xmlns="http://www.w3.org/2000/svg">
<mask id="mask0_29_5" style="mask-type:luminance" maskUnits="userSpaceOnUse" x="0" y="0" width="39" height="39">
<path d="M19.543 0.616699C13.943 0.616699 11.1429 0.616797 9.8429 0.716797C4.8429 1.2168 0.942944 5.3165 0.642944 10.4165C0.542944 11.1165 0.542969 12.0165 0.542969 13.4165C0.542969 14.9165 0.542969 16.9166 0.542969 19.5166C0.542969 24.4166 0.542944 27.1167 0.642944 28.6167C0.942944 34.1167 5.44297 38.4165 11.043 38.4165H28.043C33.543 38.4165 38.143 34.1167 38.443 28.6167C38.443 27.1167 38.443 24.7167 38.443 22.1167V17.1167C38.443 14.4167 38.443 12.0165 38.443 10.4165C38.143 5.4165 34.2429 1.3168 29.2429 0.716797C28.5429 0.716797 27.4429 0.616699 25.6429 0.616699H19.543Z" fill="white"/>
</mask>
<g mask="url(#mask0_29_5)">
<path d="M424.643 158.957V-7827.48H-1495.36V158.957H424.643Z" fill="url(#paint0_radial_29_5)"/>
</g>
<mask id="mask1_29_5" style="mask-type:luminance" maskUnits="userSpaceOnUse" x="0" y="0" width="39" height="39">
<mask id="mask2_29_5" style="mask-type:luminance" maskUnits="userSpaceOnUse" x="0" y="0" width="39" height="39">
<path d="M19.543 0.65654C11.643 0.65654 9.3429 0.65654 8.8429 0.65654C7.2429 0.856541 6.24294 1.05654 5.14294 1.65654C4.24294 2.05654 3.64299 2.55655 2.94299 3.25655C1.74299 4.45655 1.04292 6.05654 0.74292 7.85654C0.64292 8.75654 0.542969 8.85654 0.542969 13.4565C0.542969 14.9565 0.542969 16.8565 0.542969 19.5565C0.542969 27.4565 0.542944 29.7565 0.642944 30.2565C0.742944 31.7565 1.04297 32.7565 1.54297 33.8565C2.54297 35.9565 4.44292 37.5565 6.74292 38.0565C7.44292 38.2565 8.34299 38.3565 9.44299 38.4565C9.94299 38.4565 14.643 38.4565 19.443 38.4565C24.243 38.4565 29.043 38.4565 29.443 38.4565C30.743 38.3565 31.5429 38.2565 32.3429 38.0565C34.6429 37.4565 36.443 35.9565 37.543 33.8565C38.043 32.7565 38.2429 31.7565 38.3429 30.2565C38.4429 29.9565 38.443 24.7565 38.443 19.5565C38.443 14.3565 38.4429 9.15654 38.3429 8.85654C38.2429 7.35654 38.043 6.35654 37.443 5.25655C37.043 4.35654 36.5429 3.65655 35.8429 3.05655C34.6429 1.85655 33.0429 1.05654 31.2429 0.856537C30.3429 0.656536 30.1429 0.65654 25.6429 0.65654H19.543Z" fill="white"/>
</mask>
<g mask="url(#mask2_29_5)">
<g style="mix-blend-mode:multiply">
<path d="M-3032.5 -7519.69L-1421.36 528.59L1961.79 -148.833L350.648 -8197.12L-3032.5 -7519.69Z" fill="url(#paint1_radial_29_5)"/>
</g>
</g>
</mask>
<g mask="url(#mask1_29_5)">
<mask id="mask3_29_5" style="mask-type:luminance" maskUnits="userSpaceOnUse" x="0" y="0" width="39" height="39">
<path d="M11.043 0.616699C5.24297 0.616699 0.542969 5.3166 0.542969 11.0166V28.0166C0.542969 33.8166 5.24297 38.4165 11.043 38.4165H28.043C33.743 38.4165 38.443 33.8166 38.443 28.0166V11.0166C38.443 5.3166 33.743 0.616699 28.043 0.616699H11.043Z" fill="white"/>
</mask>
<g mask="url(#mask3_29_5)">
</g>
<mask id="mask4_29_5" style="mask-type:luminance" maskUnits="userSpaceOnUse" x="0" y="0" width="39" height="39">
<path d="M19.543 0.65654C11.643 0.65654 9.3429 0.65654 8.8429 0.65654C7.2429 0.856541 6.24294 1.05654 5.14294 1.65654C4.24294 2.05654 3.64299 2.55655 2.94299 3.25655C1.74299 4.45655 1.04292 6.05654 0.74292 7.85654C0.64292 8.75654 0.542969 8.85654 0.542969 13.4565C0.542969 14.9565 0.542969 16.8565 0.542969 19.5565C0.542969 27.4565 0.542944 29.7565 0.642944 30.2565C0.742944 31.7565 1.04297 32.7565 1.54297 33.8565C2.54297 35.9565 4.44292 37.5565 6.74292 38.0565C7.44292 38.2565 8.34299 38.3565 9.44299 38.4565C9.94299 38.4565 14.643 38.4565 19.443 38.4565C24.243 38.4565 29.043 38.4565 29.443 38.4565C30.743 38.3565 31.5429 38.2565 32.3429 38.0565C34.6429 37.4565 36.443 35.9565 37.543 33.8565C38.043 32.7565 38.2429 31.7565 38.3429 30.2565C38.4429 29.9565 38.443 24.7565 38.443 19.5565C38.443 14.3565 38.4429 9.15654 38.3429 8.85654C38.2429 7.35654 38.043 6.35654 37.443 5.25655C37.043 4.35654 36.5429 3.65655 35.8429 3.05655C34.6429 1.85655 33.0429 1.05654 31.2429 0.856537C30.3429 0.656536 30.1429 0.65654 25.6429 0.65654H19.543Z" fill="white"/>
</mask>
<g mask="url(#mask4_29_5)">
<path d="M-3032.5 -7519.69L-1421.36 528.591L1961.79 -148.832L350.648 -8197.12L-3032.5 -7519.69Z" fill="url(#paint2_radial_29_5)"/>
</g>
</g>
<path d="M19.5003 14.9174C22.0723 14.9174 24.1573 17.0024 24.1573 19.5744C24.1573 22.1454 22.0723 24.2304 19.5003 24.2304C16.9283 24.2304 14.8433 22.1454 14.8433 19.5744C14.8433 17.0024 16.9283 14.9174 19.5003 14.9174ZM19.5003 12.3994C15.5383 12.3994 12.3263 15.6124 12.3263 19.5744C12.3263 23.5364 15.5383 26.7474 19.5003 26.7474C23.4623 26.7474 26.6733 23.5364 26.6733 19.5744C26.6733 15.6124 23.4623 12.3994 19.5003 12.3994ZM26.9573 10.4414C26.0323 10.4414 25.2813 11.1914 25.2813 12.1174C25.2813 13.0424 26.0323 13.7934 26.9573 13.7934C27.8833 13.7934 28.6343 13.0424 28.6343 12.1174C28.6343 11.1914 27.8833 10.4414 26.9573 10.4414ZM18.2473 8.12143C18.6193 8.12143 19.0343 8.12143 19.5003 8.12143C23.2303 8.12143 23.6723 8.13443 25.1453 8.20143C26.5073 8.26443 27.2463 8.49143 27.7393 8.68343C28.3913 8.93643 28.8563 9.23843 29.3443 9.72743C29.8333 10.2164 30.1363 10.6824 30.3903 11.3344C30.5813 11.8264 30.8093 12.5654 30.8713 13.9274C30.9383 15.4004 30.9523 15.8424 30.9523 19.5714C30.9523 23.2994 30.9383 23.7414 30.8713 25.2144C30.8083 26.5764 30.5813 27.3154 30.3903 27.8074C30.1363 28.4594 29.8333 28.9234 29.3443 29.4124C28.8553 29.9014 28.3913 30.2044 27.7393 30.4574C27.2473 30.6494 26.5073 30.8764 25.1453 30.9384C23.6723 31.0054 23.2303 31.0204 19.5003 31.0204C15.7703 31.0204 15.3283 31.0054 13.8553 30.9384C12.4933 30.8754 11.7543 30.6484 11.2613 30.4564C10.6093 30.2034 10.1433 29.9014 9.6543 29.4124C9.1653 28.9234 8.8633 28.4584 8.6093 27.8064C8.4173 27.3144 8.1903 26.5754 8.1283 25.2134C8.0613 23.7404 8.0473 23.2984 8.0473 19.5674C8.0473 15.8364 8.0613 15.3964 8.1283 13.9244C8.1903 12.5624 8.4173 11.8224 8.6093 11.3304C8.8623 10.6784 9.1653 10.2124 9.6543 9.72343C10.1433 9.23443 10.6093 8.93243 11.2613 8.67843C11.7533 8.48643 12.4933 8.25943 13.8553 8.19643C15.1443 8.13843 15.6433 8.12143 18.2473 8.11843V8.12143ZM19.5003 5.60443C15.7063 5.60443 15.2303 5.62043 13.7403 5.68843C12.2523 5.75643 11.2373 5.99243 10.3493 6.33743C9.4303 6.69443 8.6513 7.17143 7.8743 7.94843C7.0973 8.72443 6.6203 9.50443 6.2623 10.4224C5.9153 11.3114 5.6803 12.3264 5.6133 13.8134C5.5463 15.3034 5.5293 15.7804 5.5293 19.5744C5.5293 23.3684 5.5463 23.8424 5.6133 25.3334C5.6813 26.8204 5.9173 27.8354 6.2623 28.7234C6.6193 29.6424 7.0963 30.4224 7.8733 31.1984C8.6503 31.9754 9.4293 32.4544 10.3473 32.8104C11.2363 33.1564 12.2513 33.3914 13.7383 33.4594C15.2293 33.5274 15.7043 33.5444 19.4983 33.5444C23.2933 33.5444 23.7673 33.5274 25.2573 33.4594C26.7453 33.3914 27.7613 33.1564 28.6503 32.8104C29.5683 32.4544 30.3473 31.9754 31.1233 31.1984C31.9003 30.4224 32.3773 29.6424 32.7353 28.7244C33.0793 27.8354 33.3143 26.8204 33.3843 25.3334C33.4513 23.8434 33.4693 23.3684 33.4693 19.5744C33.4693 15.7804 33.4513 15.3044 33.3843 13.8134C33.3143 12.3264 33.0793 11.3114 32.7353 10.4234C32.3773 9.50443 31.9003 8.72443 31.1233 7.94843C30.3463 7.17143 29.5693 6.69443 28.6493 6.33743C27.7583 5.99243 26.7433 5.75643 25.2553 5.68843C23.7653 5.62043 23.2913 5.60443 19.4963 5.60443H19.5003Z" fill="white"/>
<defs>
<radialGradient id="paint0_radial_29_5" cx="0" cy="0" r="1" gradientUnits="userSpaceOnUse" gradientTransform="translate(10.631 41.4029) rotate(-90) scale(37.4949 34.8824)">
<stop stop-color="#FDDC56"/>
<stop offset="0.104762" stop-color="#FEDA55"/>
<stop offset="0.277381" stop-color="#FF9E4C"/>
<stop offset="0.315476" stop-color="#FF914A"/>
<stop offset="0.353571" stop-color="#FF8448"/>
<stop offset="0.502381" stop-color="#FE543F"/>
<stop offset="0.582143" stop-color="#F64E51"/>
<stop offset="0.690476" stop-color="#EA4669"/>
<stop offset="0.866667" stop-color="#D73C8E"/>
<stop offset="1" stop-color="#C737AA"/>
</radialGradient>
<radialGradient id="paint1_radial_29_5" cx="0" cy="0" r="1" gradientUnits="userSpaceOnUse" gradientTransform="translate(-5.75914 3.3821) rotate(78.6799) scale(16.7606 69.1074)">
<stop stop-color="white"/>
<stop offset="0.135714" stop-color="#FDFDFD"/>
<stop offset="0.252381" stop-color="#D9D8D8"/>
<stop offset="0.411905" stop-color="#A9A9A7"/>
<stop offset="0.590476" stop-color="#777674"/>
<stop offset="0.709524" stop-color="#575754"/>
<stop offset="0.811905" stop-color="#3E3D3A"/>
<stop offset="0.922619" stop-color="#242320"/>
<stop offset="0.995238" stop-color="#13130E"/>
<stop offset="1" stop-color="#12120C"/>
</radialGradient>
<radialGradient id="paint2_radial_29_5" cx="0" cy="0" r="1" gradientUnits="userSpaceOnUse" gradientTransform="translate(-5.75883 3.38197) rotate(78.6799) scale(16.7606 69.1074)">
<stop stop-color="#3871C7"/>
<stop offset="0.145238" stop-color="#3A6FC8"/>
<stop offset="0.188095" stop-color="#3F6ACA"/>
<stop offset="0.297619" stop-color="#485ED1"/>
<stop offset="0.455952" stop-color="#5250DC"/>
<stop offset="0.563095" stop-color="#5648E2"/>
<stop offset="0.716667" stop-color="#5B3EEC"/>
<stop offset="0.911905" stop-color="#5E38F9"/>
<stop offset="0.978571" stop-color="#5F36FC"/>
<stop offset="1" stop-color="#5F35FE"/>
</radialGradient>
</defs>
</svg>
