<svg width="38" height="39" viewBox="0 0 38 39" fill="none" xmlns="http://www.w3.org/2000/svg">
<path d="M27.1384 38.2676H10.4714C4.72538 38.2676 0.0673828 33.6096 0.0673828 27.8636V11.1966C0.0673828 5.45058 4.72538 0.791576 10.4714 0.791576H27.1384C32.8844 0.791576 37.5424 5.45058 37.5424 11.1966V27.8636C37.5424 33.6096 32.8844 38.2676 27.1384 38.2676Z" fill="#0376B2"/>
<path d="M11.832 10.083C10.59 10.083 9.58203 11.09 9.58203 12.332C9.58203 13.575 10.59 14.582 11.832 14.582C13.074 14.582 14.081 13.575 14.081 12.332C14.081 11.09 13.074 10.083 11.832 10.083Z" fill="#FDFCFF"/>
<path d="M9.58203 29.6655H14.0811V16.4335H9.58203V29.6655Z" fill="#FDFCFF"/>
<path d="M24.5342 16.3015C22.5582 16.3015 21.3732 16.7905 20.6972 17.2475V16.4335H16.1982V29.6655H20.6972V20.5925C21.2552 20.0775 21.9762 19.6095 22.7502 19.6095C24.4732 19.6095 24.4752 22.7185 24.4752 22.7185V29.6655H28.5042V23.3145C28.5042 18.8155 28.2392 16.3015 24.5342 16.3015Z" fill="#FDFCFF"/>
</svg>
