<svg width="211" height="53" viewBox="0 0 211 53" fill="none" xmlns="http://www.w3.org/2000/svg">
<g clip-path="url(#clip0_10_1165)">
<path d="M7.93506 49.4745C14.7551 49.4745 18.6671 46.6665 18.6671 40.1135C18.6671 32.9925 14.0201 30.1505 6.83206 30.1505H3.32106V49.4745H7.93506ZM0.914062 27.8095H6.83206C15.8591 27.8095 21.1751 31.9555 21.1751 40.0795C21.1751 47.6025 17.0291 51.8145 7.93506 51.8145H0.914062V27.8095Z" fill="#4A4A49"/>
<path d="M40.565 41.117C39.629 37.439 36.988 35.801 33.912 35.801C30.736 35.801 28.362 37.506 27.325 41.117H40.565ZM24.751 42.989C24.751 38.141 28.329 33.595 33.878 33.595C39.094 33.595 43.073 37.506 43.073 42.956V43.123H27.091C27.225 47.202 29.967 50.044 34.012 50.044C37.489 50.044 39.261 48.071 40.565 45.931L42.471 46.934C40.766 50.211 37.89 52.25 34.012 52.25C28.094 52.25 24.751 47.937 24.751 42.989Z" fill="#4A4A49"/>
<path d="M47.4512 34.0615H49.7252V36.6355C51.0622 34.6965 52.5002 33.5935 54.3052 33.5935C55.2412 33.5935 55.8432 33.8615 56.3442 34.3625L55.1412 36.1345C54.8732 36.0005 54.4382 35.7995 53.9372 35.7995C51.5302 35.7995 49.7252 38.6085 49.7252 42.8545V51.8145H47.4512V34.0615Z" fill="#4A4A49"/>
<path d="M58.416 34.0615H60.69V37.1035C62.261 34.8305 64.233 33.5935 66.774 33.5935C69.482 33.5935 71.422 34.9975 72.391 37.8735C73.963 35.0305 76.303 33.5935 78.911 33.5935C82.588 33.5935 84.962 36.2345 84.962 41.2835V51.8145H82.689V40.8145C82.689 37.7725 81.351 35.7995 78.476 35.7995C75.066 35.7995 72.792 38.7425 72.792 43.0885V51.8145H70.519V41.9515C70.519 38.0405 69.516 35.7995 66.34 35.7995C62.829 35.7995 60.69 38.8095 60.69 43.4225V51.8145H58.416V34.0615Z" fill="#4A4A49"/>
<path d="M105.422 43.022C105.422 38.91 102.346 35.8 98.3679 35.8C94.2889 35.8 91.3469 39.144 91.3469 42.956C91.3469 46.8 94.3559 50.177 98.3339 50.177C101.978 50.177 105.422 47.436 105.422 43.022ZM89.0059 42.888C89.0059 37.84 93.0179 33.594 98.1669 33.594C101.042 33.594 103.483 34.831 105.255 37.305V34.062H107.495V51.815H105.255V48.772C103.316 51.113 100.875 52.25 98.0999 52.25C92.9179 52.25 89.0059 47.937 89.0059 42.888Z" fill="#4A4A49"/>
<path d="M140.397 49.8794C140.397 50.0924 140.324 50.3914 140.178 50.7774C139.951 51.3754 139.825 51.7214 139.799 51.8154C137.777 51.3364 135.329 50.4244 132.456 49.0814C130.966 48.3894 128.479 47.2524 124.994 45.6694C122.374 44.4854 120.033 43.7674 117.971 43.5144C117.851 43.9134 117.792 44.4124 117.792 45.0114C117.792 45.5174 117.832 46.2814 117.911 47.3054C117.991 48.3294 118.031 49.0944 118.031 49.6004C118.031 49.9994 118.011 50.3914 117.971 50.7774C117.971 51.2154 117.28 51.4354 115.896 51.4354C115.244 51.4354 114.725 51.3024 114.34 51.0364C114.008 47.8444 113.841 44.4794 113.841 40.9414C113.841 36.8844 114.054 32.4214 114.48 27.5534C114.639 25.7314 114.859 23.6024 115.138 21.1684L117.034 21.5274C117.659 21.7144 117.971 22.0264 117.971 22.4654C117.971 22.9174 117.944 23.6554 117.891 24.6804L117.732 27.7534C117.665 29.0294 117.633 30.1004 117.632 30.9644C117.63 32.7074 117.919 33.8404 117.971 34.4174C118.151 35.4774 118.523 36.5494 118.884 37.4204C119.446 38.7724 120.398 39.9194 121.621 40.7224C122.772 41.4774 124.182 42.2354 125.852 42.9964C126.983 43.5144 129.463 44.5464 133.294 46.0884C136.38 47.3254 138.634 48.3704 140.058 49.2204C140.284 49.3544 140.397 49.5734 140.397 49.8794Z" fill="#36BAD8"/>
<path d="M146.999 21.8868C146.999 24.0288 146.926 26.3358 146.78 28.8098L146.301 36.9108C146.141 39.6108 146.061 41.8718 146.061 43.6948C146.061 46.6078 146.214 49.1208 146.52 51.2358C146.374 51.3028 145.902 51.4758 145.104 51.7548C144.532 51.9538 144.073 52.2338 143.727 52.5928C143.288 50.3448 143.068 47.1788 143.068 43.0958C143.068 38.9728 143.295 33.9578 143.747 28.0518C143.84 26.7878 144.046 24.3938 144.365 20.8688C144.592 20.8558 144.765 20.8558 144.884 20.8688C145.709 20.9628 146.414 21.3018 146.999 21.8868Z" fill="#E5007D"/>
<path d="M175.454 39.1061C175.454 37.8291 174.736 36.2991 173.299 34.5171C173.1 34.2641 172.461 33.5521 171.384 32.3821C168.338 29.0571 164.74 26.9421 160.59 26.0371C159.885 27.9661 159.339 30.3271 158.954 33.1201C158.475 36.5921 158.235 41.4741 158.235 47.7651C158.488 48.1911 159 48.4031 159.772 48.4031H160.091C160.184 48.4031 160.284 48.3971 160.39 48.3841C163.21 48.3841 165.877 47.7781 168.391 46.5671C170.998 45.3171 173.1 43.5821 174.696 41.3601C175.201 40.6561 175.454 39.9041 175.454 39.1061ZM178.886 38.9261C178.886 40.5631 178.4 42.0721 177.429 43.4551C174.716 47.3131 170.566 49.8931 164.979 51.1971C162.691 51.7291 160.337 51.9951 157.916 51.9951C157.358 51.9951 156.945 51.9611 156.679 51.8951C156.187 51.7751 155.682 51.5161 155.163 51.1171C154.844 49.0421 154.684 46.8071 154.684 44.4131C154.684 40.6751 155.069 36.3331 155.841 31.3841C156.001 30.3471 156.36 28.1591 156.918 24.8201C156.227 24.5151 155.133 24.3411 153.637 24.3021C152.14 24.2611 151.053 24.0961 150.374 23.8031C149.882 23.6831 149.636 23.2511 149.636 22.5061C149.636 21.7211 149.982 21.1291 150.673 20.7301C160.251 20.7301 168.63 24.4681 175.813 31.9431C177.861 34.0711 178.886 36.3991 178.886 38.9261Z" fill="#009FE3"/>
<path d="M210.168 45.9491C210.168 47.0941 209.855 48.0441 209.23 48.8021C207.874 50.4381 205.512 51.4361 202.147 51.7951C200.897 51.9281 199.354 51.9941 197.518 51.9941C196.893 51.9941 195.836 51.9811 194.346 51.9551H192.112C190.622 51.9281 188.866 51.5601 186.844 50.8501L181.357 48.9241C179.908 48.6021 179.183 48.1271 179.183 47.4981C179.183 47.0961 179.449 46.6821 179.981 46.2541C180.42 45.8921 180.865 45.6381 181.318 45.4911C181.517 45.4241 181.703 45.3901 181.876 45.3901C182.435 45.3901 183.353 45.6901 184.63 46.2881C186.638 47.2331 187.842 47.7851 188.241 47.9441C189.757 48.5561 191.047 48.8621 192.112 48.8621C192.816 48.8621 193.701 48.8881 194.765 48.9421C197.16 49.0611 198.622 49.1211 199.155 49.1211C201.203 49.1211 202.752 48.8751 203.803 48.3841C205.147 47.7581 205.958 46.6601 206.237 45.0911C206.264 44.9451 206.278 44.8191 206.278 44.7121C206.278 43.3951 204.581 41.9121 201.19 40.2631L195.144 37.3301C189.039 34.3641 185.567 31.4511 184.729 28.5911C184.703 28.4051 184.69 28.2721 184.69 28.1921C184.69 27.0211 185.673 25.8581 187.642 24.7001C189.265 23.7421 191.207 23.0181 193.468 22.5261C194.386 22.3261 195.444 22.1001 196.64 21.8471C200.205 21.1021 202.952 20.7301 204.881 20.7301C206.118 20.7301 206.736 21.3221 206.736 22.5061C205.579 23.2901 203.418 23.9691 200.252 24.5411L192.89 25.8771C190.562 26.3031 189.398 27.1281 189.398 28.3511V28.5911C189.398 28.6571 189.425 28.7701 189.478 28.9301C189.704 29.9941 191.007 31.1781 193.389 32.4821C193.588 32.5881 196.115 33.9451 200.97 36.5521C204.269 38.3211 206.657 39.8511 208.133 41.1411C208.758 41.5391 209.263 42.2581 209.649 43.2961C209.995 44.2001 210.168 45.0851 210.168 45.9491Z" fill="#7A3F91"/>
<path d="M134.061 21.2199C134.061 21.2199 134.812 16.8619 136.096 13.7199C137.379 10.5779 139.475 7.33189 142.06 5.47989C144.646 3.62789 149.148 2.23889 149.148 2.23889L153.459 0.839888C153.486 0.799888 152.792 6.19789 152.207 7.74089C151.719 9.36589 150.037 13.7999 147.202 16.5119C144.265 19.3229 140.7 20.5709 138.04 21.0539C135.851 21.4519 134.061 21.2199 134.061 21.2199Z" fill="#E22B88"/>
<path d="M132.687 3.82071C132.687 3.82071 133.234 7.29271 133.311 9.08671C133.385 10.8097 133.71 13.6367 131.987 16.4067C130.265 19.1757 127.264 22.3037 127.264 22.3037C127.264 22.3037 124.647 16.7207 125.539 12.8777C126.285 9.66171 129.558 6.62671 130.323 5.85771C130.466 5.71371 130.621 5.58171 130.785 5.46071L132.687 3.82071Z" fill="#009FE3"/>
<path d="M122.685 20.0868C122.685 20.0868 125.004 21.4888 124.717 24.9988C124.43 28.5088 122.441 31.8018 122.441 31.8018C122.441 31.8018 119.923 28.7078 120.097 24.4328C120.47 21.8488 122.685 20.0868 122.685 20.0868Z" fill="#7A3F91"/>
<path d="M121.757 36.5943L126.306 30.9113C126.306 30.9113 128.078 28.7233 129.954 27.5253C131.83 26.3283 134.405 26.7293 135.142 27.4183C135.879 28.1053 136.109 28.9723 135.628 30.5773C135.158 32.1483 134.34 33.4063 133.28 34.3103C132.219 35.2143 129.416 35.8983 127.903 36.2713C126.391 36.6453 121.757 36.5943 121.757 36.5943Z" fill="#36BAD8"/>
</g>
<defs>
<clipPath id="clip0_10_1165">
<rect width="209.2" height="51.8" fill="white" transform="translate(0.942383 0.816406)"/>
</clipPath>
</defs>
</svg>
