<svg width="67" height="61" viewBox="0 0 67 61" fill="none" xmlns="http://www.w3.org/2000/svg">
<path d="M0.536011 9.15709V50.8451C0.536011 56.3681 5.01301 60.8451 10.536 60.8451H56.536C62.059 60.8451 66.536 56.3681 66.536 50.8451V9.15709C66.536 4.38009 62.059 0.507095 56.536 0.507095H10.536C5.01401 0.507095 0.536011 4.38009 0.536011 9.15709Z" fill="#6DA2E2"/>
<path d="M50.7759 17.9757H17.7919C16.2219 17.9757 14.9489 19.2487 14.9489 20.8197V40.5337C14.9489 42.1037 16.2219 43.3767 17.7919 43.3767H50.7759C52.3459 43.3767 53.6189 42.1037 53.6189 40.5337V20.8197C53.6189 19.2487 52.3459 17.9757 50.7759 17.9757Z" fill="white"/>
<path d="M12.5602 21.1563L33.6222 32.3503C33.9282 32.5133 34.2962 32.5133 34.6022 32.3503L54.5122 21.7513" stroke="#6DA2E2" stroke-width="2.789"/>
</svg>
