<svg width="71" height="67" viewBox="0 0 71 67" fill="none" xmlns="http://www.w3.org/2000/svg">
<path d="M60.3999 66.5146H-26.6001C-32.1231 66.5146 -36.6001 62.0376 -36.6001 56.5146V10.5146C-36.6001 4.99165 -32.1231 0.514648 -26.6001 0.514648H60.3999C65.9229 0.514648 70.3999 4.99165 70.3999 10.5146V56.5146C70.3999 62.0376 65.9229 66.5146 60.3999 66.5146Z" fill="#029EE2"/>
<path d="M56.6898 21.1127H23.7058C22.1358 21.1127 20.8628 22.3857 20.8628 23.9567V43.6707C20.8628 45.2407 22.1358 46.5137 23.7058 46.5137H56.6898C58.2598 46.5137 59.5328 45.2407 59.5328 43.6707V23.9567C59.5328 22.3857 58.2598 21.1127 56.6898 21.1127Z" fill="white"/>
<path d="M18.4741 24.293L39.5361 35.488C39.8421 35.65 40.2101 35.65 40.5161 35.487L60.4261 24.888" stroke="#029EE2" stroke-width="2.789"/>
</svg>
