<svg width="67" height="61" viewBox="0 0 67 61" fill="none" xmlns="http://www.w3.org/2000/svg">
<path d="M0.716064 9.15709V50.8451C0.716064 56.3681 5.19306 60.8451 10.7161 60.8451H56.7161C62.2391 60.8451 66.7161 56.3681 66.7161 50.8451V9.15709C66.7161 4.38009 62.2391 0.507095 56.7161 0.507095H10.7161C5.19406 0.507095 0.716064 4.38009 0.716064 9.15709Z" fill="#82BDD9"/>
<path d="M28.1329 28.5366C28.1239 26.9976 26.8829 25.7866 25.3369 25.8076C23.8109 25.8286 22.5709 27.1056 22.6069 28.6206C22.6429 30.1336 23.9519 31.4186 25.4209 31.3826C26.9279 31.3466 28.1419 30.0726 28.1329 28.5366ZM15.1269 28.5456C15.1129 30.0926 16.3049 31.3436 17.8359 31.3876C19.3059 31.4296 20.5899 30.1546 20.6269 28.6156C20.6629 27.0826 19.4369 25.8156 17.9069 25.8066C16.3429 25.7976 15.1409 26.9806 15.1269 28.5456ZM32.8479 25.8086C31.3369 25.8226 30.0999 27.0826 30.1069 28.6026C30.1139 30.0766 31.4219 31.3826 32.8969 31.3876C34.3719 31.3926 35.6929 30.0246 35.6709 28.5166C35.6479 27.0066 34.3839 25.7946 32.8479 25.8086ZM8.41687 27.1236C8.63687 26.3406 8.80987 25.5406 9.08687 24.7796C10.1859 21.7626 12.2749 19.5706 14.9879 17.9626C19.0389 15.5616 23.4229 14.7766 28.0859 15.3606C31.7029 15.8146 34.9919 17.0476 37.7929 19.3986C41.0519 22.1336 42.7759 25.5736 42.1799 29.9156C41.7529 33.0176 40.0569 35.4046 37.7139 37.3896C36.0469 38.8016 34.0609 39.6396 32.1349 40.5956C29.0789 42.1136 26.0359 43.6586 22.9849 45.1876C22.8649 45.2486 22.7259 45.2726 22.4539 45.3586C22.5209 45.0786 22.5409 44.8886 22.6109 44.7196C22.9519 43.8996 23.3069 43.0856 23.6559 42.2686C23.9709 41.5296 23.9209 41.4446 23.1189 41.3806C20.0019 41.1316 17.1219 40.1506 14.5089 38.4546C11.7579 36.6676 9.70487 34.3006 8.80487 31.0666C8.66187 30.5526 8.54487 30.0316 8.41687 29.5146V27.1236Z" fill="white"/>
<path d="M47.7962 43.4416C48.1192 44.2696 48.4531 45.1256 48.8622 46.1766C48.4251 46.0086 48.1531 45.9316 47.9061 45.8046C45.3102 44.4696 42.6941 43.1696 40.1362 41.7656C39.0812 41.1866 38.1451 40.3886 37.1711 39.6696C36.6831 39.3106 36.6561 39.0186 37.2461 38.6336C39.5431 37.1316 41.3781 35.1996 42.4561 32.6336C43.5461 30.0376 43.5921 27.4066 42.5821 24.7796C42.3961 24.2966 42.4931 24.0626 42.9491 23.9526C47.6231 22.8196 53.5742 23.7566 57.0191 28.0196C59.9651 31.6666 59.6091 36.4016 56.2262 39.6646C54.0492 41.7646 51.4031 42.8086 48.4571 43.2106C48.2961 43.2326 48.1351 43.2616 47.9761 43.2976C47.9361 43.3066 47.9042 43.3526 47.7962 43.4416Z" fill="white"/>
</svg>
