<svg xmlns="http://www.w3.org/2000/svg" width="71" height="67" viewBox="0 0 71 67" fill="none">
<path d="M60.3999 66.5146H-26.6001C-32.1231 66.5146 -36.6001 62.0376 -36.6001 56.5146V10.5146C-36.6001 4.99165 -32.1231 0.514648 -26.6001 0.514648H60.3999C65.9229 0.514648 70.3999 4.99165 70.3999 10.5146V56.5146C70.3999 62.0376 65.9229 66.5146 60.3999 66.5146Z" fill="#35B9D7" style="&#10;    fill: #48C0D5;&#10;"/>
<path d="M33.1423 33.8743C33.1333 32.3343 31.8923 31.1243 30.3463 31.1453C28.8203 31.1663 27.5803 32.4433 27.6163 33.9583C27.6523 35.4713 28.9613 36.7563 30.4303 36.7203C31.9373 36.6843 33.1513 35.4103 33.1423 33.8743ZM20.1363 33.8833C20.1223 35.4303 21.3143 36.6813 22.8453 36.7253C24.3153 36.7673 25.5993 35.4923 25.6363 33.9533C25.6723 32.4203 24.4463 31.1533 22.9163 31.1453C21.3523 31.1353 20.1503 32.3183 20.1363 33.8833ZM37.8573 31.1463C36.3463 31.1603 35.1093 32.4203 35.1163 33.9403C35.1233 35.4143 36.4313 36.7203 37.9063 36.7263C39.3813 36.7303 40.7023 35.3623 40.6803 33.8543C40.6573 32.3443 39.3933 31.1323 37.8573 31.1463ZM13.4263 32.4613C13.6463 31.6783 13.8193 30.8783 14.0963 30.1173C15.1953 27.1003 17.2843 24.9083 19.9973 23.3003C24.0483 20.8983 28.4323 20.1143 33.0953 20.6983C36.7123 21.1523 40.0013 22.3853 42.8023 24.7363C46.0613 27.4713 47.7853 30.9113 47.1893 35.2533C46.7623 38.3543 45.0663 40.7423 42.7233 42.7283C41.0563 44.1393 39.0703 44.9773 37.1443 45.9333C34.0883 47.4513 31.0453 48.9963 27.9943 50.5253C27.8743 50.5853 27.7353 50.6103 27.4633 50.6963C27.5303 50.4163 27.5503 50.2263 27.6203 50.0573C27.9613 49.2373 28.3163 48.4233 28.6653 47.6063C28.9803 46.8673 28.9303 46.7823 28.1283 46.7183C25.0113 46.4693 22.1313 45.4883 19.5183 43.7923C16.7673 42.0053 14.7143 39.6383 13.8143 36.4043C13.6713 35.8913 13.5543 35.3693 13.4263 34.8523V32.4613Z" fill="white"/>
<path d="M52.8054 48.7796C53.1284 49.6076 53.4624 50.4636 53.8714 51.5146C53.4344 51.3466 53.1624 51.2696 52.9154 51.1426C50.3194 49.8076 47.7034 48.5086 45.1454 47.1036C44.0904 46.5246 43.1544 45.7266 42.1804 45.0076C41.6924 44.6486 41.6654 44.3576 42.2554 43.9716C44.5524 42.4686 46.3874 40.5376 47.4654 37.9716C48.5554 35.3756 48.6014 32.7446 47.5914 30.1176C47.4064 29.6346 47.5024 29.4016 47.9584 29.2906C52.6324 28.1576 58.5834 29.0946 62.0284 33.3586C64.9744 37.0056 64.6184 41.7396 61.2354 45.0026C59.0584 47.1026 56.4124 48.1466 53.4664 48.5486C53.3054 48.5706 53.1444 48.5996 52.9854 48.6356C52.9454 48.6446 52.9134 48.6906 52.8054 48.7796Z" fill="white"/>
</svg>