<svg width="112" height="29" viewBox="0 0 112 29" fill="none" xmlns="http://www.w3.org/2000/svg">
<path d="M21.0062 2.33321C19.6972 0.850206 17.3702 0.210207 14.3452 0.210207H5.61918C5.00918 0.210207 4.48518 0.646206 4.39818 1.25721L0.762179 24.2642C0.704179 24.7292 1.05318 25.1372 1.48918 25.1372H6.87018L8.20818 16.5562L8.17918 16.8182C8.26618 16.2072 8.79018 15.7712 9.40118 15.7712H11.9602C16.9922 15.7712 20.9192 13.7352 22.0532 7.83021C22.0822 7.65621 22.1112 7.4812 22.1402 7.30721C22.5482 5.15421 22.1992 3.67121 21.0062 2.33321Z" fill="#003086"/>
<path d="M86.1629 7.65022H80.1419C79.7349 7.65022 79.3859 7.94122 79.3279 8.34822L76.8839 23.7642C76.8259 24.0552 77.0589 24.3452 77.3789 24.3452H80.4619C80.7529 24.3452 80.9859 24.1422 81.0439 23.8512L81.7419 19.4882C81.7999 19.0812 82.1489 18.7902 82.5559 18.7902H84.4469C88.4029 18.7902 90.6999 16.8702 91.2819 13.0602C91.5439 11.4022 91.2819 10.0932 90.5259 9.19221C89.6819 8.17422 88.1699 7.65022 86.1629 7.65022ZM86.8609 13.2932C86.5409 15.4452 84.8829 15.4452 83.2829 15.4452H82.3819L83.0219 11.4022C83.0509 11.1692 83.2829 10.9662 83.5159 10.9662H83.9229C84.9999 10.9662 86.0469 10.9662 86.5699 11.5772C86.8899 11.9842 86.9769 12.5072 86.8609 13.2932Z" fill="#069BDD"/>
<path d="M43.2549 7.65022H37.2339C36.8269 7.65022 36.4779 7.94122 36.4199 8.34822L33.9769 23.7642C33.9179 24.0552 34.1509 24.3452 34.4709 24.3452H37.3509C37.7579 24.3452 38.1069 24.0552 38.1649 23.6472L38.8339 19.4882C38.8919 19.0812 39.2409 18.7902 39.6479 18.7902H41.5389C45.4949 18.7902 47.7919 16.8702 48.3739 13.0602C48.6359 11.4022 48.3739 10.0932 47.6179 9.19221C46.8039 8.17422 45.2909 7.65022 43.2549 7.65022ZM43.9529 13.2932C43.6329 15.4452 41.9749 15.4452 40.3749 15.4452H39.4739L40.1139 11.4022C40.1429 11.1692 40.3749 10.9662 40.6079 10.9662H41.0149C42.0919 10.9662 43.1389 10.9662 43.6619 11.5772C43.9819 11.9842 44.0689 12.5072 43.9529 13.2932Z" fill="#003086"/>
<path d="M61.2329 13.2235H58.3529C58.1209 13.2235 57.8879 13.3975 57.8589 13.6595L57.7429 14.4745L57.5389 14.1835C56.9279 13.2815 55.5319 12.9615 54.1359 12.9615C50.9659 12.9615 48.2309 15.3755 47.7079 18.7495C47.4459 20.4365 47.8239 22.0365 48.7839 23.1705C49.6569 24.2185 50.9069 24.6255 52.4199 24.6255C54.9789 24.6255 56.4049 22.9675 56.4049 22.9675L56.2879 23.7815C56.2299 24.0725 56.4629 24.3635 56.7829 24.3635H59.3709C59.7789 24.3635 60.1279 24.0725 60.1859 23.6655L61.7569 13.8055C61.7859 13.4855 61.5529 13.2235 61.2329 13.2235ZM57.2189 18.8085C56.9279 20.4655 55.6479 21.5715 53.9609 21.5715C53.1179 21.5715 52.4489 21.3095 52.0419 20.7855C51.6049 20.2915 51.4599 19.5645 51.5759 18.7495C51.8379 17.1215 53.1759 15.9865 54.8049 15.9865C55.6189 15.9865 56.2879 16.2485 56.7249 16.7725C57.1899 17.2955 57.3649 18.0225 57.2189 18.8085Z" fill="#003086"/>
<path d="M104.141 13.2235H101.261C101.029 13.2235 100.796 13.3975 100.767 13.6595L100.651 14.4745L100.447 14.1835C99.8361 13.2815 98.4401 12.9615 97.0441 12.9615C93.8741 12.9615 91.1391 15.3755 90.6161 18.7495C90.3541 20.4365 90.7321 22.0365 91.6921 23.1705C92.5651 24.2185 93.8151 24.6255 95.3281 24.6255C97.8871 24.6255 99.3131 22.9675 99.3131 22.9675L99.1961 23.7815C99.1381 24.0725 99.3711 24.3635 99.6911 24.3635H102.279C102.687 24.3635 103.036 24.0725 103.094 23.6655L104.664 13.8055C104.694 13.4855 104.461 13.2235 104.141 13.2235ZM100.127 18.8085C99.8361 20.4655 98.5561 21.5715 96.8691 21.5715C96.0261 21.5715 95.3571 21.3095 94.9501 20.7855C94.5131 20.2915 94.3681 19.5645 94.4841 18.7495C94.7461 17.1215 96.0841 15.9865 97.7131 15.9865C98.5271 15.9865 99.1961 16.2485 99.6331 16.7725C100.069 17.2955 100.243 18.0225 100.127 18.8085Z" fill="#069BDD"/>
<path d="M76.5781 13.2027H73.6691C73.3791 13.2027 73.1461 13.3477 72.9711 13.5807L69.0161 19.4567L67.3291 13.8137C67.2121 13.4647 66.8921 13.2027 66.5141 13.2027H63.6641C63.3151 13.2027 63.0821 13.5517 63.1981 13.8717L66.3981 23.2377L63.4021 27.4547C63.1691 27.7747 63.4021 28.2407 63.8091 28.2407H66.6891C66.9501 28.2407 67.2121 28.0947 67.3871 27.8907L77.0141 13.9877C77.2181 13.6677 76.9851 13.2027 76.5781 13.2027Z" fill="#003086"/>
<path d="M107.531 8.06307L105.059 23.7701C105 24.0601 105.233 24.3511 105.553 24.3511H108.025C108.433 24.3511 108.782 24.0601 108.84 23.6531L111.283 8.23807C111.341 7.94707 111.109 7.65607 110.789 7.65607H108.025C107.793 7.65607 107.589 7.83007 107.531 8.06307Z" fill="#069BDD"/>
<path d="M21.0062 2.33321C19.6972 0.850206 17.3702 0.210207 14.3452 0.210207H5.61918C5.00918 0.210207 4.48518 0.646206 4.39818 1.25721L0.762179 24.2642C0.704179 24.7292 1.05318 25.1372 1.48918 25.1372H6.87018L8.20818 16.5562L8.17918 16.8182C8.26618 16.2072 8.79018 15.7712 9.40118 15.7712H11.9602C16.9922 15.7712 20.9192 13.7352 22.0532 7.83021C22.0822 7.65621 22.1112 7.4812 22.1402 7.30721C22.5482 5.15421 22.1992 3.67121 21.0062 2.33321Z" fill="#003086"/>
<path d="M9.72929 7.36618C9.78729 6.98818 10.0203 6.69719 10.3403 6.55219C10.4853 6.49319 10.6313 6.43518 10.8053 6.43518H17.6113C18.4263 6.43518 19.1823 6.49318 19.8513 6.61018C20.0553 6.63918 20.2293 6.66818 20.4333 6.72618C20.6073 6.75518 20.8113 6.81318 20.9853 6.87218C21.0733 6.90118 21.1603 6.93019 21.2473 6.95918C21.5963 7.07518 21.9163 7.19118 22.1783 7.36618C22.5273 5.18518 22.1783 3.70118 20.9853 2.36318C19.6763 0.880184 17.3503 0.240185 14.3253 0.240185H5.59929C4.98829 0.240185 4.46429 0.676184 4.37729 1.28718L0.799288 24.2652C0.741288 24.7302 1.09029 25.1382 1.52729 25.1382H6.90829L8.24629 16.5572L9.72929 7.36618Z" fill="#003086"/>
<path d="M22.2051 7.34774C22.1761 7.52274 22.1471 7.69674 22.1181 7.87174C20.9831 13.7757 17.0281 15.8117 12.0251 15.8117H9.46511C8.85411 15.8117 8.33111 16.2477 8.24411 16.8587L6.90611 25.1487L6.52811 27.5047C6.46911 27.9117 6.76011 28.2607 7.16711 28.2607H11.7051C12.2281 28.2607 12.6941 27.8827 12.7811 27.3297L12.8391 27.0977L13.6831 21.6867L13.7411 21.3967C13.8281 20.8727 14.2941 20.4657 14.8171 20.4657H15.4861C19.8781 20.4657 23.3101 18.6917 24.3281 13.5137C24.7361 11.3617 24.5321 9.55874 23.4271 8.27874C23.1071 7.90074 22.6701 7.60974 22.2051 7.34774Z" fill="#069BDD"/>
</svg>
