<svg width="67" height="61" viewBox="0 0 67 61" fill="none" xmlns="http://www.w3.org/2000/svg">
<path d="M0.946045 9.15709V50.8451C0.946045 56.3681 5.42305 60.8451 10.946 60.8451H56.946C62.469 60.8451 66.946 56.3681 66.946 50.8451V9.15709C66.946 4.38009 62.469 0.507095 56.946 0.507095H10.946C5.42405 0.507095 0.946045 4.38009 0.946045 9.15709Z" fill="#7A278D"/>
<path d="M41.1464 13.945C40.8084 14.157 40.1064 15.619 40.1064 15.619C39.8194 16.196 37.7404 20.441 37.4544 21.238C37.2094 21.922 36.9314 22.695 37.9634 23.388C38.7434 23.916 40.5444 25.458 41.1114 25.96C41.5124 26.312 41.6434 26.635 41.2524 27.416C41.1894 27.547 39.5734 31.327 37.2664 33.935C35.2234 36.248 32.6984 37.851 31.7064 38.433C31.1024 38.791 30.8204 38.557 30.3784 38.116C30.1124 37.843 28.6634 36.647 28.5244 36.551C28.2344 36.361 27.5364 36.02 27.5364 36.02C26.8554 35.675 26.2614 35.89 25.8704 36.083C25.6014 36.221 20.3594 38.397 19.8664 38.604C18.3854 39.225 18.3084 39.887 18.3444 40.521C18.3674 40.829 18.3894 43.709 19.3844 44.627L19.5564 44.788C20.5094 45.689 22.4914 47.564 26.3274 47.564C27.2094 47.564 28.1374 47.422 29.1654 47.131C31.0144 46.596 33.0374 45.55 34.8884 44.166C34.9274 44.136 37.8534 42.029 39.0674 40.975C42.9054 37.642 45.7394 33.877 47.2234 30.079C49.1204 25.226 49.5534 23.154 49.5534 21.978C49.5534 21.463 49.2914 20.38 49.2694 20.145C49.1364 18.663 47.3004 15.138 45.2384 14.398C43.2894 13.697 41.5844 13.683 41.1464 13.945Z" fill="white"/>
</svg>
