<svg xmlns="http://www.w3.org/2000/svg" width="71" height="67" viewBox="0 0 71 67" fill="none">
<path d="M60.3999 66.5146H-26.6001C-32.1231 66.5146 -36.6001 62.0376 -36.6001 56.5146V10.5146C-36.6001 4.99165 -32.1231 0.514648 -26.6001 0.514648H60.3999C65.9229 0.514648 70.3999 4.99165 70.3999 10.5146V56.5146C70.3999 62.0376 65.9229 66.5146 60.3999 66.5146Z" fill="#832C86" style="&#10;    fill: #7D0E86;&#10;"/>
<path d="M46.0186 17.0675C45.6806 17.2795 44.9786 18.7405 44.9786 18.7405C44.6916 19.3175 42.6126 23.5635 42.3266 24.3605C42.0816 25.0445 41.8036 25.8175 42.8356 26.5105C43.6156 27.0385 45.4166 28.5805 45.9836 29.0825C46.3846 29.4345 46.5156 29.7565 46.1246 30.5385C46.0616 30.6695 44.4456 34.4495 42.1386 37.0575C40.0956 39.3705 37.5706 40.9735 36.5786 41.5555C35.9746 41.9135 35.6926 41.6795 35.2506 41.2385C34.9846 40.9655 33.5356 39.7695 33.3966 39.6735C33.1066 39.4835 32.4086 39.1425 32.4086 39.1425C31.7276 38.7965 31.1336 39.0115 30.7426 39.2045C30.4736 39.3425 25.2316 41.5195 24.7386 41.7265C23.2576 42.3475 23.1806 43.0095 23.2166 43.6425C23.2396 43.9505 23.2616 46.8315 24.2566 47.7495L24.4286 47.9105C25.3816 48.8115 27.3636 50.6865 31.1996 50.6865C32.0816 50.6865 33.0096 50.5445 34.0376 50.2535C35.8866 49.7185 37.9096 48.6725 39.7606 47.2885C39.7996 47.2585 42.7256 45.1505 43.9396 44.0975C47.7766 40.7645 50.6116 36.9995 52.0956 33.2015C53.9926 28.3485 54.4256 26.2765 54.4256 25.1005C54.4256 24.5855 54.1636 23.5025 54.1416 23.2675C54.0086 21.7855 52.1726 18.2605 50.1106 17.5215C48.1616 16.8195 46.4566 16.8055 46.0186 17.0675Z" fill="white"/>
</svg>