<svg width="67" height="61" viewBox="0 0 67 61" fill="none" xmlns="http://www.w3.org/2000/svg">
<path d="M0.716064 9.26207V50.9501C0.716064 56.4731 5.19306 60.9501 10.7161 60.9501H56.7161C62.2391 60.9501 66.7161 56.4731 66.7161 50.9501V9.26207C66.7161 4.48507 62.2391 0.612076 56.7161 0.612076H10.7161C5.19406 0.612076 0.716064 4.48507 0.716064 9.26207Z" fill="#82BDD9"/>
<path d="M26.8241 45.5592C26.8241 44.9942 26.8071 44.7302 26.8271 44.4702C27.0241 41.8082 27.1931 39.1442 27.4631 36.4892C27.5061 36.0652 27.9441 35.6202 28.3001 35.2962C32.4491 31.5282 36.6161 27.7812 40.7801 24.0292C41.8011 23.1092 42.8411 22.2092 43.8391 21.2652C44.1031 21.0162 44.2451 20.6372 44.4421 20.3182C44.0251 20.3582 43.5331 20.2692 43.2031 20.4602C41.7821 21.2782 40.4051 22.1742 39.0171 23.0502C33.6471 26.4392 28.2881 29.8462 22.8931 33.1952C22.4921 33.4442 21.7921 33.4302 21.3051 33.2862C18.6521 32.5022 16.0231 31.6402 13.3861 30.8062C13.2831 30.7732 13.1481 30.7862 13.0761 30.7232C12.6881 30.3842 12.0631 30.0612 12.0091 29.6662C11.9591 29.2922 12.4201 28.6472 12.8181 28.4512C14.2351 27.7542 15.7091 27.1682 17.1831 26.5942C22.9891 24.3362 28.8031 22.0972 34.6151 19.8542C39.3751 18.0172 44.1351 16.1802 48.8981 14.3542C50.2781 13.8262 51.5311 14.6202 51.4171 16.0842C51.3031 17.5482 50.9501 18.9962 50.6551 20.4422C50.1821 22.7592 49.6691 25.0682 49.1771 27.3812C48.6961 29.6422 48.2181 31.9042 47.7401 34.1662C47.2451 36.5072 46.7531 38.8492 46.2571 41.1902C45.9281 42.7412 45.6281 44.3002 45.2511 45.8402C44.9251 47.1742 43.6821 47.7812 42.5051 47.0732C41.0811 46.2162 39.7621 45.1832 38.4151 44.2022C36.7601 42.9992 35.1151 41.7812 33.4821 40.5472C33.0491 40.2202 32.7731 40.3652 32.4451 40.6902C31.1031 42.0172 29.7651 43.3492 28.3831 44.6332C28.0061 44.9842 27.4811 45.1772 26.8241 45.5592Z" fill="white"/>
</svg>
