<svg xmlns="http://www.w3.org/2000/svg" width="71" height="67" viewBox="0 0 71 67" fill="none">
<path d="M60.3999 66.5146H-26.6001C-32.1231 66.5146 -36.6001 62.0376 -36.6001 56.5146V10.5146C-36.6001 4.99165 -32.1231 0.514648 -26.6001 0.514648H60.3999C65.9229 0.514648 70.3999 4.99165 70.3999 10.5146V56.5146C70.3999 62.0376 65.9229 66.5146 60.3999 66.5146Z" fill="#35B9D7" style="&#10;    fill: #48C0D5;&#10;"/>
<path d="M32.2558 50.8828C32.2558 50.3178 32.2388 50.0538 32.2588 49.7938C32.4558 47.1318 32.6248 44.4668 32.8948 41.8128C32.9378 41.3878 33.3758 40.9438 33.7318 40.6198C37.8808 36.8518 42.0488 33.1048 46.2118 29.3528C47.2328 28.4328 48.2728 27.5328 49.2708 26.5898C49.5348 26.3398 49.6768 25.9608 49.8738 25.6418C49.4568 25.6818 48.9648 25.5928 48.6348 25.7838C47.2138 26.6018 45.8368 27.4978 44.4488 28.3738C39.0798 31.7628 33.7198 35.1698 28.3248 38.5188C27.9238 38.7678 27.2238 38.7538 26.7368 38.6098C24.0838 37.8258 21.4548 36.9638 18.8178 36.1298C18.7148 36.0968 18.5798 36.1098 18.5078 36.0468C18.1198 35.7078 17.4948 35.3848 17.4408 34.9898C17.3908 34.6158 17.8518 33.9698 18.2498 33.7748C19.6668 33.0778 21.1408 32.4908 22.6148 31.9178C28.4208 29.6598 34.2348 27.4208 40.0468 25.1778C44.8068 23.3408 49.5668 21.5038 54.3308 19.6778C55.7098 19.1498 56.9627 19.9438 56.8488 21.4078C56.7348 22.8718 56.3817 24.3198 56.0868 25.7658C55.6138 28.0828 55.1008 30.3918 54.6088 32.7048C54.1278 34.9658 53.6498 37.2278 53.1718 39.4898C52.6768 41.8308 52.1847 44.1728 51.6888 46.5138C51.3598 48.0658 51.0597 49.6248 50.6828 51.1638C50.3568 52.4978 49.1138 53.1048 47.9368 52.3968C46.5128 51.5398 45.1938 50.5068 43.8468 49.5268C42.1917 48.3218 40.5468 47.1048 38.9138 45.8708C38.4808 45.5438 38.2048 45.6888 37.8768 46.0138C36.5348 47.3408 35.1968 48.6728 33.8148 49.9568C33.4377 50.3078 32.9128 50.5008 32.2558 50.8828Z" fill="white"/>
</svg>