<svg xmlns="http://www.w3.org/2000/svg" width="71" height="67" viewBox="0 0 71 67" fill="none">
<path d="M60.3999 66.5146H-26.6001C-32.1231 66.5146 -36.6001 62.0376 -36.6001 56.5146V10.5146C-36.6001 4.99165 -32.1231 0.514648 -26.6001 0.514648H60.3999C65.9229 0.514648 70.3999 4.99165 70.3999 10.5146V56.5146C70.3999 62.0376 65.9229 66.5146 60.3999 66.5146Z" fill="#E12A87" style="&#10;    fill: #E32488;&#10;"/>
<path d="M27.7168 41.7506C26.0198 39.2396 25.1258 36.3266 25.1258 33.2876C25.1258 32.8016 25.1498 32.3176 25.1988 31.8097C25.9628 23.9566 32.5388 18.0346 40.4948 18.0346C48.4708 18.0346 55.2008 24.2107 55.8158 32.0937C55.8518 32.5587 55.8678 32.9366 55.8678 33.2857C55.8678 41.6967 48.9718 48.5386 40.4948 48.5386C38.2338 48.5386 36.0248 48.0476 34.0018 47.1066C33.4368 46.8436 32.3658 46.2036 32.0278 45.9996C31.9588 45.9576 31.8778 45.9496 31.8018 45.9736L26.6098 47.6256C26.4908 47.6636 26.3788 47.5496 26.4188 47.4316L28.0968 42.4866C28.1258 42.4016 28.1118 42.3087 28.0598 42.2346C27.9578 42.0926 27.7898 41.8586 27.7168 41.7506ZM59.4168 32.8127C59.1558 22.5447 50.8448 14.5016 40.4948 14.5016C30.3318 14.5016 22.0258 22.3897 21.5868 32.4587C21.5728 32.7337 21.5648 33.0096 21.5648 33.2876C21.5648 36.6297 22.4558 39.8997 24.1448 42.7617C24.1848 42.8307 24.1938 42.9126 24.1688 42.9886L20.8158 52.8946C20.7698 53.0286 20.8968 53.1586 21.0328 53.1156L31.3478 49.8346C31.4178 49.8126 31.4938 49.8196 31.5588 49.8546C34.2988 51.3106 37.3828 52.0786 40.4948 52.0786C50.9338 52.0786 59.4258 43.6486 59.4258 33.2876C59.4258 33.1507 59.4168 32.8127 59.4168 32.8127Z" fill="white"/>
<path d="M49.4958 37.4681C49.3778 37.2791 48.5608 36.8871 48.5608 36.8871C48.2388 36.7271 45.8678 35.5661 45.4228 35.4051C45.0408 35.2691 44.6088 35.1141 44.2218 35.6901C43.9268 36.1261 43.0658 37.1321 42.7858 37.4481C42.5888 37.6721 42.4088 37.7451 41.9718 37.5271C41.8988 37.4921 39.7878 36.5891 38.3308 35.3011C37.0388 34.1601 36.1438 32.7491 35.8188 32.1961C35.6188 31.8581 35.7498 31.7011 35.9958 31.4531C36.1478 31.3051 36.8168 30.4961 36.8698 30.4181C36.9767 30.2561 37.1667 29.8661 37.1667 29.8661C37.3597 29.4861 37.2397 29.1551 37.1318 28.9361C37.0547 28.7851 35.8388 25.8581 35.7228 25.5821C35.3768 24.7561 35.0068 24.7121 34.6528 24.7331C34.4808 24.7451 32.8718 24.7581 32.3598 25.3141L32.2688 25.4091C31.7658 25.9411 30.7188 27.0491 30.7188 29.1911C30.7188 29.6841 30.7988 30.2021 30.9608 30.7761C31.2598 31.8091 31.8438 32.9391 32.6168 33.9721C32.6338 33.9941 33.8108 35.6291 34.3988 36.3061C36.2608 38.4501 38.3638 40.0331 40.4848 40.8621C43.1958 41.9211 44.3528 42.1631 45.0098 42.1631C45.2968 42.1631 45.9018 42.0171 46.0328 42.0051C46.8608 41.9301 48.8298 40.9051 49.2428 39.7531C49.6338 38.6641 49.6418 37.7121 49.4958 37.4681Z" fill="white"/>
</svg>