<svg width="67" height="61" viewBox="0 0 67 61" fill="none" xmlns="http://www.w3.org/2000/svg">
<path d="M0.716064 8.93908V50.6271C0.716064 56.1501 5.19306 60.6271 10.7161 60.6271H56.7161C62.2391 60.6271 66.7161 56.1501 66.7161 50.6271V8.93908C66.7161 4.16208 62.2391 0.289078 56.7161 0.289078H10.7161C5.19406 0.289078 0.716064 4.16208 0.716064 8.93908Z" fill="#82BDD9"/>
<path d="M21.317 38.396C19.62 35.885 18.726 32.972 18.726 29.933C18.726 29.447 18.75 28.963 18.799 28.455C19.563 20.602 26.139 14.68 34.095 14.68C42.071 14.68 48.801 20.856 49.416 28.74C49.452 29.204 49.468 29.582 49.468 29.931C49.468 38.342 42.572 45.184 34.095 45.184C31.834 45.184 29.625 44.694 27.602 43.752C27.037 43.489 25.966 42.849 25.628 42.645C25.559 42.603 25.478 42.595 25.402 42.619L20.21 44.271C20.091 44.309 19.979 44.195 20.019 44.077L21.697 39.132C21.726 39.047 21.712 38.954 21.66 38.88C21.558 38.739 21.39 38.504 21.317 38.396ZM53.017 29.458C52.756 19.19 44.445 11.147 34.095 11.147C23.932 11.147 15.626 19.035 15.187 29.104C15.173 29.379 15.165 29.655 15.165 29.933C15.165 33.275 16.056 36.545 17.745 39.408C17.785 39.476 17.795 39.558 17.769 39.634L14.416 49.54C14.37 49.675 14.497 49.804 14.633 49.761L24.948 46.48C25.018 46.458 25.094 46.465 25.159 46.499C27.899 47.955 30.983 48.724 34.095 48.724C44.534 48.724 53.026 40.294 53.026 29.933C53.026 29.796 53.017 29.458 53.017 29.458Z" fill="white"/>
<path d="M43.096 34.1132C42.978 33.9242 42.161 33.5322 42.161 33.5322C41.839 33.3722 39.468 32.2112 39.023 32.0512C38.641 31.9142 38.209 31.7592 37.822 32.3352C37.527 32.7712 36.666 33.7772 36.386 34.0942C36.189 34.3172 36.009 34.3902 35.572 34.1722C35.499 34.1372 33.388 33.2342 31.931 31.9462C30.639 30.8052 29.744 29.3952 29.419 28.8412C29.219 28.5032 29.35 28.3462 29.596 28.0992C29.748 27.9502 30.417 27.1412 30.47 27.0632C30.577 26.9012 30.767 26.5122 30.767 26.5122C30.96 26.1312 30.84 25.8002 30.732 25.5812C30.655 25.4312 29.439 22.5032 29.323 22.2282C28.977 21.4012 28.607 21.3582 28.253 21.3782C28.081 21.3902 26.472 21.4032 25.96 21.9592L25.869 22.0542C25.366 22.5872 24.319 23.6942 24.319 25.8362C24.319 26.3292 24.399 26.8472 24.561 27.4222C24.86 28.4542 25.444 29.5842 26.217 30.6182C26.234 30.6392 27.411 32.2742 27.999 32.9522C29.861 35.0952 31.964 36.6782 34.085 37.5072C36.796 38.5672 37.953 38.8082 38.61 38.8082C38.897 38.8082 39.502 38.6622 39.633 38.6502C40.461 38.5762 42.43 37.5502 42.843 36.3982C43.234 35.3102 43.242 34.3582 43.096 34.1132Z" fill="white"/>
</svg>
