<svg width="39" height="39" viewBox="0 0 39 39" fill="none" xmlns="http://www.w3.org/2000/svg">
<path d="M27.7423 38.4517H10.7453C4.98827 38.4517 0.322266 33.7857 0.322266 28.0287V11.0317C0.322266 5.27466 4.98827 0.608662 10.7453 0.608662H27.7423C33.4983 0.608662 38.1653 5.27466 38.1653 11.0317V28.0287C38.1653 33.7857 33.4983 38.4517 27.7423 38.4517Z" fill="black"/>
<path d="M20.3277 19.724L26.2847 28.293H24.9157L19.5747 20.61L20.3277 19.724ZM14.2357 10.961L18.9427 17.731L18.1887 18.617L12.8667 10.961H14.2357ZM30.1117 30.293L21.6677 18.148L29.4787 8.96097H26.3987L20.2827 16.155L15.2817 8.96097H9.03974L16.8487 20.193L8.26074 30.293H11.3407L18.2337 22.186L23.8697 30.293H30.1117Z" fill="white"/>
</svg>
